<svg width="703" height="744" xmlns="http://www.w3.org/2000/svg" xmlns:xlink="http://www.w3.org/1999/xlink" xml:space="preserve" overflow="hidden"><g transform="translate(1277 -1078)"><path d="M-925.5 1092C-739.104 1092-588 1129.49-588 1175.75L-588 1175.75-606.034 1519.98-605.863 1522.88C-606.026 1586.45-637.349 1650.06-699.793 1698.66-760.655 1746.02-835.974 1782.14-925.751 1807-1015.4 1782.42-1090.54 1746.54-1151.15 1699.36-1205.58 1657.01-1236.11 1603.08-1242.78 1547.68L-1243.85 1529.52-1244.47 1529.52-1263 1175.75-1263 1175.75C-1263 1129.49-1111.9 1092-925.5 1092Z" stroke="#156082" stroke-width="27.5" stroke-miterlimit="8" fill="none" fill-rule="evenodd"/><path d="M0 0 0.25082 715.023" stroke="#156082" stroke-width="1.14583" stroke-miterlimit="8" stroke-opacity="0.301961" fill="none" fill-rule="evenodd" transform="matrix(-1 0 0 1 -925.249 1092.5)"/><path d="M-1262.5 1450.5-587.571 1450.5" stroke="#156082" stroke-width="1.14583" stroke-miterlimit="8" stroke-opacity="0.301961" fill="none" fill-rule="evenodd"/><path d="M-1020 1635C-1053.14 1635-1080 1611.26-1080 1581.98L-1080 1496.52C-1080 1467.24-1106.86 1443.5-1140 1443.5-1106.86 1443.5-1080 1419.76-1080 1390.48L-1080 1305.02C-1080 1275.74-1053.14 1252-1020 1252" stroke="#F80202" stroke-width="45.8333" stroke-miterlimit="8" fill="none" fill-rule="evenodd"/><path d="M-832 1252C-798.587 1252-771.5 1275.93-771.5 1305.46L-771.5 1390.04C-771.5 1419.57-744.413 1443.5-711 1443.5-744.413 1443.5-771.5 1467.43-771.5 1496.96L-771.5 1581.54C-771.5 1611.07-798.587 1635-832 1635" stroke="#F80202" stroke-width="45.8333" stroke-miterlimit="8" fill="none" fill-rule="evenodd"/></g></svg>