<svg width="5744" height="1108" xmlns="http://www.w3.org/2000/svg" xmlns:xlink="http://www.w3.org/1999/xlink" xml:space="preserve" overflow="hidden"><g transform="translate(-133 -635)"><path d="M484.5 756C670.896 756 822 793.495 822 839.747L822 839.749 803.966 1183.98 804.137 1186.88C803.974 1250.45 772.651 1314.06 710.207 1362.66 649.345 1410.02 574.026 1446.14 484.249 1471 394.599 1446.42 319.465 1410.54 258.846 1363.36 204.424 1321.01 173.89 1267.08 167.215 1211.68L166.148 1193.52 165.534 1193.52 147.001 839.749 147 839.747C147 793.495 298.104 756 484.5 756Z" stroke="#156082" stroke-width="27.5" stroke-miterlimit="8" fill="none" fill-rule="evenodd"/><path d="M0 0 0.25082 715.023" stroke="#156082" stroke-width="1.14583" stroke-miterlimit="8" stroke-opacity="0.301961" fill="none" fill-rule="evenodd" transform="matrix(-1 0 0 1 485.751 756.5)"/><path d="M147.5 1114.5 822.429 1114.5" stroke="#156082" stroke-width="1.14583" stroke-miterlimit="8" stroke-opacity="0.301961" fill="none" fill-rule="evenodd"/><path d="M391 1299C357.587 1299 330.5 1275.07 330.5 1245.54L330.5 1160.96C330.5 1131.43 303.413 1107.5 270 1107.5 303.413 1107.5 330.5 1083.57 330.5 1054.04L330.5 969.46C330.5 939.935 357.587 916 391 916" stroke="#F80202" stroke-width="45.8333" stroke-miterlimit="8" fill="none" fill-rule="evenodd"/><path d="M579 916C612.137 916 639 939.737 639 969.019L639 1054.48C639 1083.76 665.863 1107.5 699 1107.5 665.863 1107.5 639 1131.24 639 1160.52L639 1245.98C639 1275.26 612.137 1299 579 1299" stroke="#F80202" stroke-width="45.8333" stroke-miterlimit="8" fill="none" fill-rule="evenodd"/><text fill="#7F7F7F" font-family="Yu Gothic Light,Yu Gothic Light_MSFontService,sans-serif" font-weight="300" font-size="527" transform="matrix(1 0 0 1 1016.68 1280)">DEFENDER</text><text fill="#7F7F7F" font-family="Yu Gothic Light,Yu Gothic Light_MSFontService,sans-serif" font-weight="300" font-size="527" transform="matrix(1 0 0 1 3889.13 1280)">2</text><text fill="#7F7F7F" font-family="Yu Gothic Light,Yu Gothic Light_MSFontService,sans-serif" font-weight="300" font-size="527" transform="matrix(1 0 0 1 4193.83 1280)">YARA</text></g></svg>